<svg id="Layer_1" data-name="Layer 1" xmlns="http://www.w3.org/2000/svg" viewBox="0 0 1000 250"><defs><style>.cls-1{fill:none;}</style></defs><title>haltian_logo_tbm</title><path class="cls-1" d="M323,195.59V30.05h21.41V103h97.82V30.05h21.42V195.59H442.19V120.35H344.37v75.24Z"/><path class="cls-1" d="M480.64,158.9q0-37.4,49.31-37.4a219.82,219.82,0,0,1,31.72,2.32V112.36q0-21-32.76-21a136.14,136.14,0,0,0-38.43,5.78V79.83A135.8,135.8,0,0,1,528.91,74q54.18,0,54.18,37.74v83.81h-12l-7.41-12a70.26,70.26,0,0,1-39.59,12Q480.64,195.59,480.64,158.9Zm49.31-20q-27.9,0-27.9,19.68t22,19.68q22.22,0,37.62-11.81V141.18A219.8,219.8,0,0,0,530,138.87Z"/><path class="cls-1" d="M626.16,30.05V195.59H604.75V30.05Z"/><path class="cls-1" d="M647.82,54.36h13.43L665.88,74h32.88V91.41H669.24v69.8q0,17,14.7,17h14.82v17.36H678.38q-30.55,0-30.56-32.76Z"/><path class="cls-1" d="M741.44,30.05V50.31H720V30.05Zm0,44V195.59H720V74Z"/><path class="cls-1" d="M758.47,158.9q0-37.4,49.32-37.4a219.68,219.68,0,0,1,31.71,2.32V112.36q0-21-32.76-21a136.14,136.14,0,0,0-38.43,5.78V79.83A135.8,135.8,0,0,1,806.74,74q54.18,0,54.18,37.74v83.81h-12l-7.41-12a70.23,70.23,0,0,1-39.59,12Q758.47,195.59,758.47,158.9Zm49.32-20q-27.9,0-27.9,19.68t22,19.68q22.23,0,37.62-11.81V141.18A219.67,219.67,0,0,0,807.79,138.87Z"/><path class="cls-1" d="M880.24,195.59V74h14.47l3.82,15.51Q917.16,74,939.51,74,985,74,985,119.31v76.28H963.58V119q0-27.09-27-27.09-18.4,0-35,15.4v88.32Z"/><path class="cls-1" d="M259.39,239.86,125.48,7.93a2.21,2.21,0,0,0-3.82,0L15.3,192.16a2.21,2.21,0,0,0,1.91,3.31h133.9l-25.63,44.39a2.21,2.21,0,0,0,1.91,3.31H257.48A2.21,2.21,0,0,0,259.39,239.86ZM224,221.65H160.84l31.59-54.72Zm-44-76.24-7.79,13.49L87.56,110l36-62.37ZM50.66,174l28.22-48.88L163.53,174H50.66Z"/></svg>